<svg xmlns="http://www.w3.org/2000/svg" viewBox="0 0 32 32" fill="none">
  <!-- Google-style background -->
  <rect width="32" height="32" rx="8" fill="white"/>
  
  <!-- PDF document shape -->
  <path d="M8 6C8 4.89543 8.89543 4 10 4H18L24 10V26C24 27.1046 23.1046 28 22 28H10C8.89543 28 8 27.1046 8 26V6Z" fill="#F7F7F7" stroke="#E0E0E0"/>
  
  <!-- Google-style color blocks -->
  <path d="M11 16L13 16L15 16L15 14L13 14L11 14L11 16Z" fill="#4285F4"/>
  <path d="M17 16L19 16L21 16L21 14L19 14L17 14L17 16Z" fill="#EA4335"/>
  <path d="M11 20L13 20L15 20L15 18L13 18L11 18L11 20Z" fill="#FBBC05"/>
  <path d="M17 20L19 20L21 20L21 18L19 18L17 18L17 20Z" fill="#34A853"/>
  
  <!-- PDF text -->
  <path d="M14.0781 23H13.4062V20.375H11.9375V19.8125H15.5469V20.375H14.0781V23Z" fill="#5F6368"/>
  <path d="M17.3281 23H16.6562V19.8125H17.8594C18.2031 19.8125 18.4844 19.9062 18.7031 20.0938C18.9219 20.2812 19.0312 20.5312 19.0312 20.8438C19.0312 21.1562 18.9219 21.4062 18.7031 21.5938C18.4844 21.7812 18.2031 21.875 17.8594 21.875H17.3281V23ZM17.3281 21.3125H17.8594C18.0781 21.3125 18.25 21.25 18.375 21.125C18.5 21 18.5625 20.9375 18.5625 20.8438C18.5625 20.75 18.5 20.6562 18.375 20.5312C18.25 20.4062 18.0781 20.375 17.8594 20.375H17.3281V21.3125Z" fill="#5F6368"/>
  <path d="M22.0781 21.4062C22.0781 21.875 21.9531 22.25 21.7031 22.5312C21.4531 22.8125 21.125 22.9688 20.7188 22.9688C20.3125 22.9688 19.9844 22.8125 19.7344 22.5C19.4844 22.1875 19.3594 21.7812 19.3594 21.2812V21.4062C19.3594 20.9062 19.4844 20.5 19.7344 20.1875C19.9844 19.875 20.3125 19.7188 20.7188 19.7188C21.125 19.7188 21.4531 19.875 21.7031 20.1875C21.9531 20.5 22.0781 20.9062 22.0781 21.4062ZM21.4062 21.2812C21.4062 20.9375 21.3438 20.6562 21.2188 20.4688C21.0938 20.2812 20.9219 20.1875 20.7188 20.1875C20.5156 20.1875 20.3438 20.2812 20.2188 20.4688C20.0938 20.6562 20.0312 20.9375 20.0312 21.2812V21.4062C20.0312 21.75 20.0938 22.0312 20.2188 22.2188C20.3438 22.4062 20.5156 22.5 20.7188 22.5C20.9219 22.5 21.0938 22.4062 21.2188 22.2188C21.3438 22.0312 21.4062 21.75 21.4062 21.4062V21.2812Z" fill="#5F6368"/>
  
  <!-- Page fold -->
  <path d="M18 4L24 10H19C18.4477 10 18 9.55228 18 9V4Z" fill="#E0E0E0"/>
</svg>
